<?xml version="1.0" encoding="utf-8"?>
<!-- Generator: Adobe Illustrator 18.1.1, SVG Export Plug-In . SVG Version: 6.00 Build 0)  -->
<svg version="1.1" id="Layer_1" xmlns="http://www.w3.org/2000/svg" xmlns:xlink="http://www.w3.org/1999/xlink" x="0px" y="0px"
	 viewBox="-517.5 1451.3 70 70" enable-background="new -517.5 1451.3 70 70" xml:space="preserve">
<path d="M-487.6,1457.3c0.1,0.1,0.1,0.1,0.2,0.2C-487.4,1457.5-487.5,1457.4-487.6,1457.3z"/>
<path d="M-480.7,1457.2C-480.8,1457.2-480.8,1457.2-480.7,1457.2C-480.8,1457.2-480.7,1457.2-480.7,1457.2z"/>
<g>
	<path fill="none" d="M-504,1499.1c0,0,1.1-1.5,3.8-2.6c0,0,5.9-1.8,8.6-3.7c0,0.1,0,0.2,0,0.3c0,0.6,0.1,1.2,0.1,2
		c0.3,3,1.1,6.7,1.1,6.7c0.9-1.5,1.7-2.5,2.5-3c0.9-0.7,1.6-0.8,2.2-0.8c0.5,0.1,0.8,0.4,1,0.5c-3.1-3.4-4.8-7.9-5-8.5
		c0.1-0.8,0-1.4,0-1.4c0,0,0,0,0,0c-0.9-1.3-1.7-2.8-2.2-4.3c-0.9-1-1.3-3.2-1.3-3.2c-1-2.9,0.1-3.5,0.3-3.6c-1-5.9-0.2-8-0.2-8
		c1.5-4.8,6.9-7.1,6.9-7.1c0.7-0.2,1-0.2,1-0.2l0.8,0.5l0.7-0.5l0.8,0.3c0-1.4,1.6-1.6,1.6-1.6c0.7,1.9,2.5,2.6,2.5,2.6
		c4.6,0.9,6.5,3.5,6.5,3.5c3,3.4,1.7,8.7,1.2,10.6c0.4,0.3,0.9,1.2,0.1,3.5c0,0-0.5,2.4-1.5,3.3c-0.6,1.6-1.4,2.7-2.5,4
		c0,0,0.1,0.4,0.1,0.4c0,0.3,0,0.6,0,0.9c-0.1,0.4-1.4,4.2-5.1,8.7c0.1-0.1,0.5-0.6,1.2-0.6c0.6-0.1,1.3,0.1,2.2,0.9
		c0.7,0.6,1.4,1.5,2.3,2.9c0,0,0.6-3.1,1-5.9c0.1-0.9,0.2-1.9,0.2-2.6c0-0.1,0-0.1,0-0.2c2.7,1.9,8.4,3.6,8.4,3.6
		c2.7,1,3.8,2.6,3.8,2.6c2,3,3.2,5,3.8,6.6c4.1-5.4,6.5-12,6.5-19.3c0-17.6-14.3-31.9-31.9-31.9c-17.6,0-31.9,14.3-31.9,31.9
		c0,7.3,2.4,13.9,6.5,19.3C-507.2,1504.1-506.1,1502.1-504,1499.1z"/>
	<path fill="#808080" d="M-482.5,1451.5c-19.2,0-34.8,15.6-34.8,34.8c0,19.2,15.6,34.8,34.8,34.8s34.8-15.6,34.8-34.8
		C-447.7,1467.2-463.3,1451.5-482.5,1451.5z M-482.5,1454.5c17.6,0,31.9,14.3,31.9,31.9c0,7.3-2.4,13.9-6.5,19.3
		c-0.6-1.6-1.7-3.5-3.8-6.6c0,0-1.1-1.5-3.8-2.6c0,0-5.7-1.7-8.4-3.6c0,0.1,0,0.1,0,0.2c0,0.7-0.1,1.7-0.2,2.6c-0.3,2.8-1,5.9-1,5.9
		c-0.8-1.4-1.6-2.3-2.3-2.9c-0.9-0.8-1.7-1-2.2-0.9c-0.7,0.1-1.1,0.5-1.2,0.6c3.7-4.5,5-8.3,5.1-8.7c0-0.3,0-0.6,0-0.9
		c0,0,0-0.4-0.1-0.4c1.1-1.3,1.9-2.5,2.5-4c1-1,1.5-3.3,1.5-3.3c0.8-2.3,0.3-3.1-0.1-3.5c0.6-1.9,1.9-7.2-1.2-10.6
		c0,0-1.9-2.6-6.5-3.5c0,0-1.8-0.7-2.5-2.6c0,0-1.6,0.2-1.6,1.6l-0.8-0.3l-0.7,0.5l-0.8-0.5c0,0-0.3-0.1-1,0.2c0,0-5.3,2.3-6.9,7.1
		c0,0-0.9,2,0.2,8c-0.3,0.1-1.4,0.7-0.3,3.6c0,0,0.4,2.1,1.3,3.2c0.5,1.5,1.2,3,2.2,4.3c0,0,0,0,0,0c0,0,0.1,0.6,0,1.4
		c0.2,0.6,2,5.1,5,8.5c-0.2-0.2-0.5-0.4-1-0.5c-0.5-0.1-1.3,0-2.2,0.8c-0.7,0.6-1.5,1.5-2.5,3c0,0-0.8-3.7-1.1-6.7
		c-0.1-0.7-0.1-1.4-0.1-2c0-0.1,0-0.2,0-0.3c-2.7,1.9-8.6,3.7-8.6,3.7c-2.7,1-3.8,2.6-3.8,2.6c-2,3-3.2,5-3.8,6.6
		c-4.1-5.4-6.5-12-6.5-19.3C-514.3,1468.8-500.1,1454.5-482.5,1454.5z"/>
</g>
</svg>
